<svg width="80" height="96" viewBox="0 0 80 96" fill="none" xmlns="http://www.w3.org/2000/svg">
<path d="M47.9466 27.14C47.9466 27.14 50.3266 32.49 66.8966 38.89C82.3266 44.86 79.5266 51 79.5266 51L79.7066 71.7C79.7066 71.7 76.8966 63.81 69.0066 61.35C61.1166 58.89 48.3066 53.1 47.7766 48.19C47.2466 43.28 47.9466 27.14 47.9466 27.14Z" fill="#C4C4C4"/>
<path d="M79.3566 1C79.3566 1 76.9766 6.35 60.4066 12.75C44.9666 18.71 47.7766 24.85 47.7766 24.85L47.5966 45.55C47.5966 45.55 50.4066 37.66 58.2966 35.2C66.1866 32.74 78.9966 26.95 79.5266 22.04C80.0566 17.14 79.3566 1 79.3566 1Z" fill="white"/>
<path d="M79.3566 50.82C79.3566 50.82 76.9766 56.17 60.4066 62.57C44.9666 68.53 47.7766 74.67 47.7766 74.67L47.5966 95.37C47.5966 95.37 50.4066 87.48 58.2966 85.02C66.1866 82.56 78.9966 76.77 79.5266 71.86C80.0566 66.96 79.3566 50.82 79.3566 50.82Z" fill="white"/>
<path d="M44.4066 27.14C44.4066 27.14 42.0266 32.49 25.4566 38.89C10.0166 44.86 12.8266 51 12.8266 51L12.6466 71.7C12.6466 71.7 15.4566 63.81 23.3466 61.35C31.2366 58.89 44.0466 53.1 44.5766 48.19C45.1066 43.28 44.4066 27.14 44.4066 27.14Z" fill="#C4C4C4"/>
<path d="M12.9966 50.82C12.9966 50.82 15.3766 56.17 31.9466 62.57C47.3866 68.53 44.5766 74.67 44.5766 74.67L44.7566 95.37C44.7566 95.37 41.9466 87.48 34.0566 85.02C26.1666 82.56 13.3566 76.77 12.8266 71.86C12.2966 66.96 12.9966 50.82 12.9966 50.82Z" fill="white"/>
<path d="M49.3966 61.81C49.5966 61.35 49.7066 60.84 49.7066 60.31C49.7066 59.32 49.3166 58.42 48.7066 57.74C48.6766 57.7 48.6666 57.67 48.6666 57.67C48.6666 57.67 48.6466 57.66 48.6366 57.65C47.9366 56.93 46.9666 56.47 45.8766 56.47C43.7566 56.47 42.0466 58.19 42.0466 60.3C42.0466 60.44 42.0766 60.58 42.0866 60.72L40.6866 61.22C36.4866 62.48 22.8866 66.31 11.4666 66.61C-2.21341 66.96 12.8666 58.36 12.8666 58.36V52.04C12.8666 52.04 -16.4334 75.9 13.3966 71.16C27.7866 68.87 35.3466 66.67 39.3266 65C39.4566 64.98 39.6066 64.94 39.7666 64.9C41.1466 64.51 42.4366 63.75 43.3166 63.13C43.9966 63.74 44.8866 64.13 45.8766 64.13C47.2866 64.13 48.4966 63.36 49.1666 62.23C49.2566 62.1 49.3266 61.96 49.3966 61.81Z" fill="#D8D8D8"/>
</svg>
