<svg width="272" height="210" viewBox="0 0 272 210" fill="none" xmlns="http://www.w3.org/2000/svg">
<g clip-path="url(#clip0_1_2)">
<path d="M5.92999 202.32C5.92999 199.53 7.83999 197.48 10.42 197.48C11.67 197.48 12.79 197.94 13.55 198.87L12.98 199.51C12.28 198.72 11.43 198.38 10.45 198.38C8.37999 198.38 6.82999 200.07 6.82999 202.32C6.82999 204.58 8.37999 206.26 10.45 206.26C11.43 206.26 12.28 205.92 12.98 205.12L13.55 205.76C12.79 206.68 11.67 207.16 10.41 207.16C7.83999 207.16 5.92999 205.11 5.92999 202.32Z" fill="#003B71"/>
<path d="M14.37 203.5C14.37 201.38 15.76 199.87 17.65 199.87C19.53 199.87 20.92 201.38 20.92 203.5C20.92 205.62 19.54 207.14 17.65 207.14C15.77 207.15 14.37 205.62 14.37 203.5ZM20.04 203.5C20.04 201.83 19.02 200.71 17.65 200.71C16.28 200.71 15.25 201.83 15.25 203.5C15.25 205.17 16.28 206.29 17.65 206.29C19.02 206.29 20.04 205.17 20.04 203.5Z" fill="#003B71"/>
<path d="M33.31 202.93V207.08H32.44V203.03C32.44 201.52 31.75 200.75 30.59 200.75C29.27 200.75 28.44 201.7 28.44 203.33V207.08H27.57V203.03C27.57 201.52 26.88 200.75 25.71 200.75C24.4 200.75 23.56 201.7 23.56 203.33V207.08H22.69V199.93H23.52V201.24C23.97 200.38 24.8 199.88 25.88 199.88C26.94 199.88 27.78 200.38 28.17 201.39C28.63 200.47 29.55 199.88 30.71 199.88C32.28 199.87 33.31 200.88 33.31 202.93Z" fill="#003B71"/>
<path d="M41.47 199.93V207.08H40.64V205.77C40.19 206.64 39.36 207.14 38.33 207.14C36.69 207.14 35.61 206.12 35.61 204.07V199.92H36.48V203.97C36.48 205.49 37.19 206.27 38.41 206.27C39.76 206.27 40.6 205.3 40.6 203.67V199.92H41.47V199.93Z" fill="#003B71"/>
<path d="M49.82 202.93V207.08H48.95V203.03C48.95 201.52 48.24 200.75 47.02 200.75C45.64 200.75 44.77 201.7 44.77 203.33V207.08H43.9V199.93H44.73V201.25C45.19 200.38 46.06 199.88 47.18 199.88C48.75 199.87 49.82 200.88 49.82 202.93Z" fill="#003B71"/>
<path d="M51.99 197.67C51.99 197.3 52.27 196.99 52.63 196.99C52.98 196.99 53.27 197.29 53.27 197.66C53.27 198.05 53 198.37 52.63 198.37C52.27 198.36 51.99 198.05 51.99 197.67ZM52.19 199.93H53.06V207.08H52.19V199.93Z" fill="#003B71"/>
<path d="M54.83 203.5C54.83 201.37 56.22 199.87 58.14 199.87C59.23 199.87 60.15 200.35 60.66 201.28L60.01 201.77C59.57 201.05 58.88 200.71 58.14 200.71C56.73 200.71 55.71 201.83 55.71 203.5C55.71 205.19 56.74 206.29 58.14 206.29C58.89 206.29 59.57 205.96 60.01 205.24L60.66 205.73C60.15 206.65 59.23 207.14 58.14 207.14C56.22 207.15 54.83 205.64 54.83 203.5Z" fill="#003B71"/>
<path d="M67.22 202.65V207.08H66.39V205.96C66 206.69 65.24 207.14 64.18 207.14C62.72 207.14 61.83 206.3 61.83 205.06C61.83 203.96 62.47 203.03 64.31 203.03H66.35V202.59C66.35 201.37 65.73 200.7 64.53 200.7C63.7 200.7 62.92 201.03 62.39 201.54L62 200.84C62.65 200.23 63.6 199.87 64.62 199.87C66.28 199.87 67.22 200.8 67.22 202.65ZM66.35 204.93V203.76H64.33C63.08 203.76 62.68 204.3 62.68 205.04C62.68 205.87 63.28 206.39 64.31 206.39C65.29 206.38 66.01 205.87 66.35 204.93Z" fill="#003B71"/>
<path d="M68.96 203.5C68.96 201.37 70.35 199.87 72.27 199.87C73.36 199.87 74.28 200.35 74.79 201.28L74.14 201.77C73.7 201.05 73.01 200.71 72.27 200.71C70.86 200.71 69.84 201.83 69.84 203.5C69.84 205.19 70.87 206.29 72.27 206.29C73.02 206.29 73.7 205.96 74.14 205.24L74.79 205.73C74.28 206.65 73.36 207.14 72.27 207.14C70.35 207.15 68.96 205.64 68.96 203.5Z" fill="#003B71"/>
<path d="M76.3 197.67C76.3 197.3 76.58 196.99 76.94 196.99C77.29 196.99 77.58 197.29 77.58 197.66C77.58 198.05 77.31 198.37 76.94 198.37C76.58 198.36 76.3 198.05 76.3 197.67ZM76.49 199.93H77.36V207.08H76.49V199.93Z" fill="#003B71"/>
<path d="M79.13 203.5C79.13 201.38 80.52 199.87 82.41 199.87C84.29 199.87 85.68 201.38 85.68 203.5C85.68 205.62 84.3 207.14 82.41 207.14C80.53 207.15 79.13 205.62 79.13 203.5ZM84.8 203.5C84.8 201.83 83.78 200.71 82.41 200.71C81.04 200.71 80.01 201.83 80.01 203.5C80.01 205.17 81.04 206.29 82.41 206.29C83.78 206.29 84.8 205.17 84.8 203.5ZM83.28 197.14H84.44L82.46 198.83H81.6L83.28 197.14Z" fill="#003B71"/>
<path d="M93.37 202.93V207.08H92.5V203.03C92.5 201.52 91.79 200.75 90.57 200.75C89.19 200.75 88.32 201.7 88.32 203.33V207.08H87.45V199.93H88.28V201.25C88.74 200.38 89.61 199.88 90.73 199.88C92.3 199.87 93.37 200.88 93.37 202.93Z" fill="#003B71"/>
<path d="M98.3 205.92L98.65 205.14C99.26 205.81 100.35 206.3 101.48 206.3C103.08 206.3 103.78 205.55 103.78 204.61C103.78 202 98.51 203.6 98.51 200.08C98.51 198.68 99.49 197.47 101.67 197.47C102.64 197.47 103.64 197.78 104.32 198.31L104.01 199.11C103.28 198.58 102.42 198.32 101.66 198.32C100.09 198.32 99.4 199.1 99.4 200.05C99.4 202.66 104.67 201.08 104.67 204.55C104.67 205.95 103.67 207.15 101.48 207.15C100.2 207.16 98.94 206.66 98.3 205.92Z" fill="#003B71"/>
<path d="M111.32 202.65V207.08H110.49V205.96C110.1 206.69 109.34 207.14 108.28 207.14C106.82 207.14 105.93 206.3 105.93 205.06C105.93 203.96 106.57 203.03 108.41 203.03H110.45V202.59C110.45 201.37 109.83 200.7 108.63 200.7C107.8 200.7 107.02 201.03 106.49 201.54L106.1 200.82C106.75 200.21 107.7 199.85 108.72 199.85C110.38 199.87 111.32 200.8 111.32 202.65ZM110.45 204.93V203.76H108.43C107.18 203.76 106.78 204.3 106.78 205.04C106.78 205.87 107.38 206.39 108.41 206.39C109.39 206.38 110.11 205.87 110.45 204.93Z" fill="#003B71"/>
<path d="M117.07 206.64C116.73 206.98 116.21 207.14 115.71 207.14C114.5 207.14 113.83 206.38 113.83 205.06V200.74H112.68V199.92H113.83V198.36H114.7V199.92H116.66V200.74H114.7V205.01C114.7 205.85 115.09 206.32 115.81 206.32C116.16 206.32 116.52 206.2 116.76 205.95L117.07 206.64Z" fill="#003B71"/>
<path d="M124.02 203.8H118.64C118.74 205.3 119.77 206.29 121.17 206.29C121.95 206.29 122.65 205.98 123.14 205.35L123.63 205.98C123.06 206.74 122.16 207.15 121.15 207.15C119.14 207.15 117.77 205.63 117.77 203.51C117.77 201.39 119.1 199.88 120.91 199.88C122.72 199.88 124.03 201.36 124.03 203.51C124.03 203.58 124.02 203.69 124.02 203.8ZM118.63 203.08H123.19C123.08 201.68 122.16 200.7 120.9 200.7C119.66 200.7 118.74 201.68 118.63 203.08Z" fill="#003B71"/>
<path d="M125.8 196.99H126.67V207.08H125.8V196.99Z" fill="#003B71"/>
<path d="M128.9 197.67C128.9 197.3 129.18 196.99 129.54 196.99C129.89 196.99 130.18 197.29 130.18 197.66C130.18 198.05 129.91 198.37 129.54 198.37C129.18 198.36 128.9 198.05 128.9 197.67ZM129.09 199.93H129.96V207.08H129.09V199.93Z" fill="#003B71"/>
<path d="M135.77 206.64C135.43 206.98 134.91 207.14 134.41 207.14C133.2 207.14 132.53 206.38 132.53 205.06V200.74H131.38V199.92H132.53V198.36H133.4V199.92H135.36V200.74H133.4V205.01C133.4 205.85 133.79 206.32 134.51 206.32C134.86 206.32 135.22 206.2 135.46 205.95L135.77 206.64Z" fill="#003B71"/>
<path d="M142.21 202.65V207.08H141.38V205.96C140.99 206.69 140.23 207.14 139.17 207.14C137.71 207.14 136.82 206.3 136.82 205.06C136.82 203.96 137.46 203.03 139.3 203.03H141.34V202.59C141.34 201.37 140.72 200.7 139.52 200.7C138.69 200.7 137.91 201.03 137.38 201.54L136.99 200.82C137.64 200.21 138.59 199.85 139.61 199.85C141.27 199.87 142.21 200.8 142.21 202.65ZM141.34 204.93V203.76H139.32C138.07 203.76 137.67 204.3 137.67 205.04C137.67 205.87 138.27 206.39 139.3 206.39C140.27 206.38 141 205.87 141.34 204.93Z" fill="#003B71"/>
<path d="M144.57 196.99H145.44V207.08H144.57V196.99Z" fill="#003B71"/>
<path d="M156.47 199.93L153.25 207.94C152.71 209.34 152.03 209.79 151.11 209.79C150.51 209.79 149.94 209.57 149.54 209.14L149.94 208.42C150.26 208.77 150.65 208.96 151.11 208.96C151.69 208.96 152.08 208.66 152.44 207.76L152.72 207.07L149.85 199.93H150.75L153.17 206.01L155.59 199.93H156.47Z" fill="#003B71"/>
<path d="M167.14 206.21V207.08H161.09V197.56H166.96V198.43H161.99V201.82H166.42V202.68H161.99V206.22H167.14V206.21Z" fill="#003B71"/>
<path d="M169.08 196.99H169.95V207.08H169.08V196.99Z" fill="#003B71"/>
<path d="M177.98 203.8H172.6C172.7 205.3 173.73 206.29 175.13 206.29C175.91 206.29 176.61 205.98 177.1 205.35L177.59 205.98C177.02 206.74 176.12 207.15 175.11 207.15C173.1 207.15 171.73 205.63 171.73 203.51C171.73 201.39 173.06 199.88 174.87 199.88C176.68 199.88 177.99 201.36 177.99 203.51C177.99 203.58 177.98 203.69 177.98 203.8ZM172.59 203.08H177.15C177.04 201.68 176.12 200.7 174.86 200.7C173.62 200.7 172.7 201.68 172.59 203.08Z" fill="#003B71"/>
<path d="M179.11 203.5C179.11 201.37 180.5 199.87 182.42 199.87C183.51 199.87 184.43 200.35 184.94 201.28L184.29 201.77C183.85 201.05 183.16 200.71 182.42 200.71C181.01 200.71 179.99 201.83 179.99 203.5C179.99 205.19 181.02 206.29 182.42 206.29C183.17 206.29 183.85 205.96 184.29 205.24L184.94 205.73C184.43 206.65 183.51 207.14 182.42 207.14C180.51 207.15 179.11 205.64 179.11 203.5Z" fill="#003B71"/>
<path d="M190.11 206.64C189.77 206.98 189.25 207.14 188.75 207.14C187.54 207.14 186.87 206.38 186.87 205.06V200.74H185.72V199.92H186.87V198.36H187.74V199.92H189.7V200.74H187.74V205.01C187.74 205.85 188.13 206.32 188.85 206.32C189.2 206.32 189.56 206.2 189.8 205.95L190.11 206.64Z" fill="#003B71"/>
<path d="M194.93 199.87V200.81C194.86 200.81 194.78 200.8 194.72 200.8C193.37 200.8 192.56 201.75 192.56 203.44V207.08H191.69V199.93H192.52V201.33C192.92 200.38 193.74 199.87 194.93 199.87Z" fill="#003B71"/>
<path d="M195.79 203.5C195.79 201.38 197.18 199.87 199.07 199.87C200.95 199.87 202.34 201.38 202.34 203.5C202.34 205.62 200.96 207.14 199.07 207.14C197.18 207.15 195.79 205.62 195.79 203.5ZM201.45 203.5C201.45 201.83 200.43 200.71 199.06 200.71C197.69 200.71 196.66 201.83 196.66 203.5C196.66 205.17 197.69 206.29 199.06 206.29C200.43 206.29 201.45 205.17 201.45 203.5ZM199.93 197.14H201.09L199.11 198.83H198.25L199.93 197.14Z" fill="#003B71"/>
<path d="M210.03 202.93V207.08H209.16V203.03C209.16 201.52 208.45 200.75 207.23 200.75C205.85 200.75 204.98 201.7 204.98 203.33V207.08H204.11V199.93H204.94V201.25C205.4 200.38 206.27 199.88 207.39 199.88C208.95 199.87 210.03 200.88 210.03 202.93Z" fill="#003B71"/>
<path d="M212.19 197.67C212.19 197.3 212.47 196.99 212.83 196.99C213.18 196.99 213.47 197.29 213.47 197.66C213.47 198.05 213.2 198.37 212.83 198.37C212.47 198.36 212.19 198.05 212.19 197.67ZM212.39 199.93H213.26V207.08H212.39V199.93Z" fill="#003B71"/>
<path d="M215.03 203.5C215.03 201.37 216.42 199.87 218.34 199.87C219.43 199.87 220.35 200.35 220.86 201.28L220.21 201.77C219.77 201.05 219.08 200.71 218.34 200.71C216.93 200.71 215.91 201.83 215.91 203.5C215.91 205.19 216.94 206.29 218.34 206.29C219.09 206.29 219.77 205.96 220.21 205.24L220.86 205.73C220.35 206.65 219.43 207.14 218.34 207.14C216.42 207.15 215.03 205.64 215.03 203.5Z" fill="#003B71"/>
<path d="M227.42 202.65V207.08H226.59V205.96C226.2 206.69 225.44 207.14 224.38 207.14C222.92 207.14 222.03 206.3 222.03 205.06C222.03 203.96 222.67 203.03 224.51 203.03H226.55V202.59C226.55 201.37 225.93 200.7 224.73 200.7C223.9 200.7 223.12 201.03 222.59 201.54L222.2 200.82C222.85 200.21 223.8 199.85 224.82 199.85C226.48 199.87 227.42 200.8 227.42 202.65ZM226.55 204.93V203.76H224.53C223.28 203.76 222.88 204.3 222.88 205.04C222.88 205.87 223.48 206.39 224.51 206.39C225.49 206.38 226.21 205.87 226.55 204.93Z" fill="#003B71"/>
<path d="M240.33 197.56V207.08H239.58L234.08 199.36V207.08H233.18V197.56H233.93L239.45 205.28V197.56H240.33Z" fill="#003B71"/>
<path d="M247.79 202.65V207.08H246.96V205.96C246.57 206.69 245.81 207.14 244.75 207.14C243.29 207.14 242.4 206.3 242.4 205.06C242.4 203.96 243.04 203.03 244.88 203.03H246.92V202.59C246.92 201.37 246.3 200.7 245.1 200.7C244.27 200.7 243.49 201.03 242.96 201.54L242.57 200.82C243.22 200.21 244.17 199.85 245.19 199.85C246.85 199.87 247.79 200.8 247.79 202.65ZM246.92 204.93V203.76H244.9C243.65 203.76 243.25 204.3 243.25 205.04C243.25 205.87 243.85 206.39 244.88 206.39C245.86 206.38 246.58 205.87 246.92 204.93Z" fill="#003B71"/>
<path d="M255.43 199.93L252.57 207.08H251.68L248.83 199.93H249.73L252.14 206.02L254.57 199.93H255.43Z" fill="#003B71"/>
<path d="M261.32 202.65V207.08H260.49V205.96C260.1 206.69 259.34 207.14 258.28 207.14C256.82 207.14 255.93 206.3 255.93 205.06C255.93 203.96 256.57 203.03 258.41 203.03H260.45V202.59C260.45 201.37 259.83 200.7 258.63 200.7C257.8 200.7 257.02 201.03 256.49 201.54L256.1 200.82C256.75 200.21 257.7 199.85 258.72 199.85C260.38 199.87 261.32 200.8 261.32 202.65ZM260.45 204.93V203.76H258.43C257.18 203.76 256.78 204.3 256.78 205.04C256.78 205.87 257.38 206.39 258.41 206.39C259.39 206.38 260.11 205.87 260.45 204.93Z" fill="#003B71"/>
<path d="M263.68 196.99H264.55V207.08H263.68V196.99Z" fill="#003B71"/>
<path d="M133.88 41.9V73.4C133.88 73.4 134.85 79.73 127.21 84.37C127.21 84.37 113.56 92.55 99.1 97.65C99.1 97.65 84.64 104.91 82.84 111.08V82.67C82.84 82.67 81.22 70.78 95.04 65.37C95.04 65.37 109.66 58.88 114.36 57.03C114.37 57.03 132.73 49.77 133.88 41.9Z" fill="#003B71"/>
<path d="M82.83 80.88V112.39C82.83 112.39 81.86 118.71 89.5 123.35C89.5 123.35 103.15 131.53 117.61 136.62C117.61 136.62 132.07 143.89 133.86 150.06V121.65C133.86 121.65 135.48 109.76 121.66 104.35C121.66 104.35 107.04 97.87 102.33 96.01C102.33 96.01 83.97 88.75 82.83 80.88Z" fill="#007297"/>
<path d="M132.49 92.44C134.55 90.45 137.85 90.5 139.83 92.57C141.82 94.64 141.76 97.92 139.7 99.91C137.64 101.9 134.35 101.84 132.36 99.78C130.38 97.72 130.43 94.43 132.49 92.44Z" fill="#FF5100"/>
<path d="M83.06 91.64C83.06 91.64 36.8 123.75 131.08 96.92L132.28 99.64C132.28 99.64 91.06 118.41 67.15 112.46C67.15 112.46 52.17 107.88 82.87 82.73L83.06 91.64Z" fill="#FF5100"/>
<path d="M189.06 80.88V112.39C189.06 112.39 190.04 118.71 182.4 123.35C182.4 123.35 168.75 131.53 154.29 136.62C154.29 136.62 139.83 143.89 138.05 150.06V121.65C138.05 121.65 136.43 109.76 150.24 104.35C150.24 104.35 164.86 97.87 169.57 96.01C169.56 96.01 187.92 88.75 189.06 80.88Z" fill="#007297"/>
<path d="M138.02 41.9V73.4C138.02 73.4 137.04 79.73 144.68 84.37C144.68 84.37 158.33 92.55 172.79 97.65C172.79 97.65 187.25 104.91 189.04 111.08V82.67C189.04 82.67 190.66 70.78 176.84 65.37C176.84 65.37 162.22 58.88 157.51 57.03C157.52 57.03 139.16 49.77 138.02 41.9Z" fill="#003B71"/>
<path d="M189.06 0V31.5C189.06 31.5 190.04 37.83 182.4 42.47C182.4 42.47 168.75 50.65 154.29 55.75C154.29 55.75 139.83 63.01 138.05 69.19V40.77C138.05 40.77 136.43 28.88 150.24 23.47C150.24 23.47 164.86 16.98 169.57 15.13C169.56 15.13 187.92 7.87 189.06 0Z" fill="#007297"/>
<path d="M29.41 179.17C29.41 180.41 29.25 181.55 28.93 182.57C28.61 183.58 28 184.46 27.11 185.19C26.22 185.92 24.97 186.52 23.4 186.93C21.82 187.35 19.74 187.56 17.23 187.56C15 187.56 13.1 187.4 11.58 187.09C10.07 186.78 8.82 186.31 7.86 185.7C6.92 185.09 6.21 184.32 5.76 183.39C5.31 182.46 5.02 181.36 4.9 180.13C4.78 178.95 4.7 177.87 4.65 176.92C4.6 175.99 4.58 175.04 4.58 174.12C4.58 173.2 4.6 172.25 4.65 171.3C4.7 170.34 4.78 169.26 4.9 168.11C5.01 166.88 5.3 165.78 5.76 164.85C6.21 163.93 6.91 163.15 7.86 162.54C8.82 161.92 10.06 161.46 11.58 161.15C13.1 160.84 15 160.68 17.23 160.68C19.74 160.68 21.82 160.89 23.4 161.32C24.97 161.74 26.22 162.32 27.11 163.06C28 163.79 28.6 164.68 28.93 165.7C29.25 166.74 29.41 167.88 29.41 169.08V169.23H34.01V169.08C34.01 167.39 33.79 165.87 33.35 164.55C32.91 163.23 32.06 162.08 30.83 161.16C29.61 160.25 27.89 159.55 25.71 159.07C23.54 158.59 20.68 158.35 17.23 158.35C14.09 158.35 11.44 158.59 9.35 159.07C7.25 159.55 5.55 160.2 4.28 161.02C3.01 161.85 2.06 162.84 1.47 163.95C0.88 165.07 0.52 166.28 0.4 167.54C0.25 168.8 0.15 169.96 0.08 171.01C0.02 172.06 0 173.1 0 174.13C0 175.14 0.02 176.18 0.08 177.23C0.14 178.3 0.25 179.48 0.4 180.74C0.52 182 0.88 183.21 1.47 184.33C2.06 185.45 3 186.44 4.28 187.26C5.54 188.09 7.25 188.74 9.35 189.2C11.44 189.66 14.09 189.91 17.23 189.91C20.95 189.91 23.95 189.63 26.14 189.09C28.33 188.54 30.02 187.78 31.15 186.84C32.29 185.88 33.04 184.73 33.39 183.41C33.74 182.11 33.94 180.68 34.01 179.18V179.03H29.41V179.17Z" fill="#003B71"/>
<path d="M71.31 167.57C71.1 165.75 70.54 164.21 69.64 163.02C68.75 161.83 67.57 160.87 66.14 160.19C64.71 159.51 63.01 159.03 61.1 158.76C59.18 158.5 57.08 158.37 54.85 158.37C52.61 158.37 50.51 158.5 48.59 158.76C46.68 159.03 44.98 159.51 43.55 160.19C42.12 160.87 40.93 161.83 40.04 163.02C39.14 164.22 38.58 165.75 38.37 167.57C38.22 168.83 38.12 170 38.08 171.04C38.03 172.08 38.02 173.12 38.02 174.14C38.02 175.15 38.04 176.2 38.08 177.25C38.13 178.31 38.23 179.47 38.37 180.7C38.58 182.53 39.14 184.06 40.04 185.25C40.93 186.44 42.11 187.4 43.55 188.08C44.98 188.77 46.67 189.24 48.59 189.51C50.5 189.77 52.6 189.91 54.85 189.91C57.09 189.91 59.19 189.77 61.1 189.51C63.01 189.24 64.71 188.77 66.14 188.08C67.57 187.4 68.75 186.44 69.64 185.25C70.54 184.06 71.09 182.52 71.31 180.7C71.46 179.45 71.56 178.29 71.6 177.25C71.64 176.24 71.67 175.19 71.67 174.14C71.67 173.09 71.64 172.05 71.6 171.04C71.56 170.01 71.46 168.84 71.31 167.57ZM54.85 187.57C52.63 187.57 50.74 187.41 49.25 187.1C47.77 186.79 46.56 186.32 45.67 185.71C44.78 185.1 44.12 184.33 43.7 183.4C43.27 182.47 43 181.36 42.89 180.14C42.77 178.94 42.68 177.86 42.62 176.92C42.56 176 42.53 175.06 42.53 174.13C42.53 173.2 42.56 172.25 42.62 171.32C42.68 170.37 42.77 169.3 42.89 168.13C43 166.89 43.27 165.8 43.7 164.86C44.12 163.94 44.79 163.16 45.67 162.55C46.56 161.93 47.77 161.47 49.25 161.16C50.74 160.85 52.63 160.69 54.85 160.69C57.07 160.69 58.94 160.85 60.42 161.16C61.89 161.46 63.09 161.93 64 162.55C64.91 163.16 65.57 163.93 65.99 164.86C66.41 165.8 66.69 166.89 66.81 168.13C66.93 169.35 67.02 170.4 67.08 171.32C67.14 172.25 67.17 173.2 67.17 174.13C67.17 175.06 67.14 176 67.08 176.92C67.03 177.83 66.93 178.89 66.81 180.14C66.69 181.37 66.42 182.47 65.99 183.4C65.57 184.33 64.9 185.11 64 185.71C63.1 186.32 61.89 186.79 60.42 187.1C58.94 187.41 57.06 187.57 54.85 187.57Z" fill="#003B71"/>
<path d="M95.71 184.21L82.77 158.97L82.73 158.89H76.63V189.37H80.37V164.17L93.01 189.29L93.05 189.37H97.08L108.55 164.19V189.37H113.14V158.89H107.08L95.71 184.21Z" fill="#003B71"/>
<path d="M145.51 175.41C144.78 174.8 143.91 174.32 142.93 173.99C141.95 173.66 140.87 173.4 139.75 173.21C138.62 173.03 137.4 172.88 136.12 172.78C134.87 172.68 133.58 172.55 132.29 172.4C130.79 172.22 129.45 172.05 128.31 171.87C127.19 171.7 126.24 171.43 125.48 171.06C124.73 170.7 124.16 170.18 123.8 169.52C123.43 168.86 123.23 167.93 123.23 166.75C123.23 165.84 123.34 165 123.54 164.27C123.74 163.55 124.18 162.92 124.86 162.39C125.54 161.85 126.55 161.43 127.83 161.14C129.13 160.84 130.9 160.69 133.09 160.69C135.66 160.69 137.64 160.96 138.97 161.47C140.3 161.98 141.27 162.63 141.85 163.4C142.42 164.17 142.75 164.99 142.8 165.86C142.86 166.76 142.89 167.57 142.89 168.3V168.44H147.49V168.3C147.49 168 147.5 167.55 147.51 166.96C147.52 166.36 147.43 165.68 147.23 164.94C147.03 164.19 146.67 163.43 146.16 162.66C145.65 161.88 144.84 161.16 143.76 160.52C142.69 159.89 141.28 159.36 139.58 158.96C137.87 158.56 135.69 158.35 133.09 158.35C130.07 158.35 127.61 158.57 125.77 159.01C123.92 159.45 122.45 160.06 121.4 160.82C120.35 161.59 119.64 162.51 119.29 163.55C118.94 164.58 118.77 165.68 118.77 166.82C118.77 168.69 119.09 170.17 119.71 171.21C120.33 172.25 121.25 173.04 122.44 173.58C123.61 174.12 125.06 174.49 126.74 174.68C128.39 174.88 130.24 175.09 132.4 175.32C133.95 175.47 135.39 175.61 136.73 175.76C138.03 175.89 139.2 176.16 140.16 176.55C141.12 176.94 141.88 177.53 142.43 178.29C142.97 179.05 143.26 180.16 143.26 181.57C143.26 182.5 143.16 183.36 142.95 184.09C142.75 184.81 142.33 185.43 141.72 185.94C141.09 186.45 140.2 186.85 139.04 187.13C137.87 187.41 136.32 187.56 134.43 187.56C132.33 187.56 130.56 187.4 129.17 187.09C127.79 186.78 126.66 186.38 125.8 185.9C124.96 185.42 124.33 184.89 123.95 184.31C123.55 183.72 123.28 183.13 123.14 182.55C123 181.97 122.93 181.41 122.95 180.92C122.96 180.4 122.97 179.98 122.97 179.65V179.5H118.38V179.65C118.38 180.14 118.41 180.72 118.47 181.39C118.53 182.08 118.72 182.81 119.02 183.58C119.32 184.34 119.8 185.11 120.45 185.86C121.1 186.62 122.04 187.29 123.23 187.89C124.42 188.49 125.94 188.97 127.76 189.34C129.57 189.7 131.82 189.89 134.44 189.89C137.16 189.89 139.41 189.68 141.13 189.28C142.85 188.87 144.24 188.3 145.24 187.56C146.25 186.82 146.94 185.91 147.31 184.88C147.67 183.85 147.87 182.69 147.87 181.42C147.87 179.98 147.66 178.75 147.24 177.79C146.81 176.83 146.24 176.03 145.51 175.41Z" fill="#003B71"/>
<path d="M171.01 158.89H165.59L150.43 189.15L150.33 189.37H154.51L160.56 177.13H174.82L180.65 189.37H185.64L171.06 158.97L171.01 158.89ZM173.74 174.81H161.75L167.79 162.57L173.74 174.81Z" fill="#003B71"/>
<path d="M180.82 161.22H194.5V189.37H199.1V161.22H212.77V158.89H180.82V161.22Z" fill="#003B71"/>
<path d="M222 174.05H241.15V171.73H222V161.22H243.17V158.89H217.41V189.37H243.76V187.05H222V174.05Z" fill="#003B71"/>
<path d="M253.31 187.05V158.89H248.71V189.37H271.06V187.05H253.31Z" fill="#003B71"/>
</g>
<defs>
<clipPath id="clip0_1_2">
<rect width="272" height="210" fill="white"/>
</clipPath>
</defs>
</svg>
