<svg width="84" height="80" viewBox="0 0 84 80" fill="none" xmlns="http://www.w3.org/2000/svg">
<path d="M11.5 76.96H71.56C75.72 76.96 79.42 74.82 81.48 71.22C83.56 67.64 83.56 63.34 81.48 59.74L51.46 7.74C49.38 4.14 45.68 2 41.52 2C37.36 2 33.66 4.14 31.58 7.74L1.56 59.74C-0.52 63.34 -0.52 67.62 1.56 71.22C3.64 74.8 7.34 76.96 11.48 76.96H11.5ZM6.36 62.5L36.38 10.5C37.46 8.64 39.38 7.54 41.52 7.54C43.66 7.54 45.6 8.64 46.66 10.5L76.68 62.5C77.76 64.36 77.76 66.58 76.68 68.44C75.6 70.3 73.68 71.4 71.54 71.4H11.5C9.36 71.4 7.44 70.3 6.36 68.44C5.3 66.6 5.3 64.36 6.36 62.5Z" fill="#EF7E20"/>
<path d="M41.52 47.9C43.04 47.9 44.28 46.66 44.28 45.14V25.78C44.28 24.26 43.04 23.02 41.52 23.02C40 23.02 38.76 24.26 38.76 25.78V45.14C38.76 46.66 40 47.9 41.52 47.9Z" fill="#EF7E20"/>
<path d="M45.96 59.34C45.96 65.24 37.1 65.24 37.1 59.34C37.1 53.44 45.96 53.44 45.96 59.34Z" fill="#EF7E20"/>
</svg>
