<svg width="80" height="80" viewBox="0 0 80 80" fill="none" xmlns="http://www.w3.org/2000/svg">
<g clip-path="url(#clip0_1_137)">
<path fill-rule="evenodd" clip-rule="evenodd" d="M1.67335 1.67335C3.90449 -0.557784 7.51098 -0.557784 9.74212 1.67335L40 31.9312L70.2579 1.67335C72.489 -0.557784 76.0955 -0.557784 78.3266 1.67335C80.5578 3.90449 80.5578 7.51098 78.3266 9.74212L48.0688 40L78.3266 70.2579C80.5578 72.489 80.5578 76.0955 78.3266 78.3266C76.0955 80.5578 72.489 80.5578 70.2579 78.3266L40 48.0688L9.74212 78.3266C7.51098 80.5578 3.90449 80.5578 1.67335 78.3266C-0.557784 76.0955 -0.557784 72.489 1.67335 70.2579L31.9312 40L1.67335 9.74212C-0.557784 7.51098 -0.557784 3.90449 1.67335 1.67335Z" fill="#F94646"/>
</g>
<defs>
<clipPath id="clip0_1_137">
<rect width="80" height="80" fill="white"/>
</clipPath>
</defs>
</svg>
