<svg width="80" height="80" viewBox="0 0 80 80" fill="none" xmlns="http://www.w3.org/2000/svg">
<path d="M57.9015 5.47816C57.1015 4.85316 54.139 3.76566 53.064 3.39066C25.6265 -5.95934 -1.94852 16.6532 1.55148 45.3157C2.43898 52.5407 5.81398 60.3907 10.639 65.8407C11.414 66.7157 12.2765 67.8657 13.539 66.9282C13.914 66.6407 14.1265 65.9407 14.264 65.1907C13.2765 64.3032 12.4515 63.2157 11.764 62.0032C11.7515 62.0532 11.739 62.0907 11.7265 62.1407C1.78898 49.5782 2.00148 31.2532 11.689 18.5782C21.364 5.91566 38.1265 1.07816 53.1515 6.70316C53.964 7.00316 56.189 8.17816 56.8265 8.19066C58.289 8.21566 59.0015 6.34066 57.9015 5.47816Z" fill="white"/>
<path d="M73.0764 18.9407C72.6389 18.2657 71.7264 16.8282 71.2014 16.3157C69.9514 15.1157 67.8389 16.4282 68.8014 18.2282C69.3514 19.2657 70.4764 20.5157 71.1389 21.6032C77.9389 32.7282 78.1889 46.8782 71.7139 58.2032C70.9389 59.5657 70.0639 60.9032 69.0889 62.1282C69.0764 62.1032 69.0764 62.0657 69.0639 62.0407C68.2389 63.1907 67.3139 64.2157 66.4264 65.0907C66.4139 65.1782 66.4014 65.2782 66.3639 65.3532C55.7014 76.4907 39.3889 79.4407 25.2889 73.1532C24.0764 72.6157 22.0889 70.9157 21.0264 72.3282C19.8514 73.9157 21.6264 74.7282 22.7514 75.3157C35.8264 82.1032 52.2514 80.4407 63.9139 71.6407C80.2889 59.2782 84.4014 36.2157 73.0764 18.9407Z" fill="white"/>
<path d="M58.439 42.6907H19.2015C18.664 42.6907 18.0015 41.6657 17.9765 41.1407C17.964 40.5532 18.6015 39.4657 19.2015 39.4657H58.439L49.389 30.3657C48.1015 28.8282 49.914 26.7157 51.5765 27.9407L63.5015 39.7532C64.2515 40.5032 64.289 41.5782 63.5515 42.3532L51.564 54.2157C49.964 55.3907 48.139 53.4657 49.314 51.8532L58.439 42.6907Z" fill="white"/>
</svg>
