<svg width="80" height="80" viewBox="0 0 80 80" fill="none" xmlns="http://www.w3.org/2000/svg">
<path d="M11.716 62.1406C13.1035 56.0531 16.6035 50.4906 21.366 46.4906C22.216 45.7781 24.9785 43.6281 25.916 43.3906C27.316 43.0281 27.966 44.3031 28.9535 45.0906C36.516 51.1531 46.941 50.3156 53.6285 43.4156C54.716 42.9781 56.266 44.1906 57.1535 44.8031C63.0785 48.8656 67.3285 55.1656 69.066 62.1406C70.041 60.9156 70.916 59.5781 71.691 58.2156C78.166 46.8906 77.916 32.7281 71.116 21.6156C70.4535 20.5281 69.3285 19.2781 68.7785 18.2406C67.8285 16.4406 69.9285 15.1156 71.1785 16.3281C71.7035 16.8281 72.616 18.2781 73.0535 18.9531C84.3785 36.2281 80.266 59.2906 63.891 71.6656C52.2285 80.4781 35.8035 82.1281 22.7285 75.3406C21.6035 74.7531 19.8285 73.9281 21.0035 72.3531C22.0535 70.9406 24.0535 72.6406 25.266 73.1781C39.3535 79.4656 55.6785 76.5156 66.341 65.3781C66.616 64.9031 66.2785 63.8156 66.1535 63.2406C64.716 56.5031 60.266 50.4281 54.5035 46.7531C46.7785 54.0281 33.9535 54.0406 26.2285 46.7531C20.3785 50.4656 16.091 56.4406 14.5785 63.2406C14.3535 64.2281 14.2785 66.3906 13.541 66.9406C12.2785 67.8781 11.416 66.7281 10.641 65.8531C5.81604 60.4031 2.42854 52.5531 1.55354 45.3281C-1.95896 16.6531 25.616 -5.95939 53.0535 3.39061C54.1285 3.75311 57.091 4.84061 57.891 5.47811C58.991 6.34061 58.291 8.21561 56.816 8.19061C56.191 8.17811 53.9535 7.01561 53.141 6.70311C38.116 1.07811 21.3535 5.91561 11.6785 18.5781C1.99104 31.2531 1.77854 49.5781 11.716 62.1406Z" fill="white"/>
<path d="M39.491 13.9906C52.041 13.2281 60.041 27.4406 52.891 37.8281C46.4785 47.1656 32.2785 46.3906 26.9535 36.4031C21.7035 26.5781 28.4285 14.6656 39.491 13.9906ZM49.066 37.7031C55.4035 31.2281 52.541 20.0906 43.866 17.5656C33.991 14.6906 25.216 24.4531 29.191 33.9406C32.5035 41.8906 43.016 43.8781 49.066 37.7031Z" fill="white"/>
</svg>
