<svg width="80" height="80" viewBox="0 0 80 80" fill="none" xmlns="http://www.w3.org/2000/svg">
<path d="M76.75 35.46V68.99C76.75 72.77 73.69 75.83 69.91 75.83H58.51C55.42 75.83 52.91 73.32 52.91 70.23V51.71C52.91 48.52 50.32 45.93 47.12 45.92H33.63C30.44 45.92 27.85 48.51 27.84 51.71V70.23C27.84 73.32 25.33 75.83 22.24 75.83H10.84C7.06 75.83 4 72.77 4 68.99V35.46C4 33.39 4.95 31.42 6.56 30.12L36.11 6.5C38.61 4.5 42.15 4.5 44.65 6.5L74.2 30.13C75.81 31.43 76.75 33.39 76.75 35.46Z" fill="white"/>
</svg>
