<svg width="84" height="80" viewBox="0 0 84 80" fill="none" xmlns="http://www.w3.org/2000/svg">
<path d="M77.4 56.0542C80.45 55.2792 81.35 49.6792 78.375 48.0042C76 46.6542 71.35 48.4292 71.875 45.2792C72.175 43.5542 74.475 44.3042 75.95 44.0542C79.8 43.3792 82.025 39.2542 78.95 36.4542C76.725 34.4292 69 35.6792 65.575 35.3292C53.425 34.0542 59.075 28.1042 60.7 20.4292C61.625 16.0792 62.55 10.9542 60.125 6.92924C59.025 5.10424 56.775 3.57924 54.65 4.70424C52.6 5.77924 53.65 11.3542 53.45 13.6042C52.875 19.6542 48.925 25.4542 43.75 28.5292C40.175 30.6542 36.65 30.6292 34.775 34.9292C33.8 37.1792 34.425 40.1792 31.675 40.6042C25.125 41.6542 23.75 36.6542 30.575 37.0792C31.3 33.1292 33.6 29.5292 37.175 27.6542C38.875 26.7542 40.65 26.5042 42.45 25.4542C46.125 23.2792 49.275 18.6042 49.85 14.3792C50.625 8.62924 47.85 -0.170759 57.625 1.12924C67.175 2.40424 65.1 17.1292 63.475 23.6042C63.125 24.9792 61.075 29.7042 61.6 30.5542C67.2 34.0042 76.875 29.2542 81.65 34.2792C84.95 37.7542 84.2 42.4292 81.175 45.7292C85.25 49.7792 84.65 56.6292 79 58.7042C81 61.4042 80.775 65.5292 78.3 67.9042C77.675 68.5042 76.475 68.7542 76.4 68.8542C76.175 69.1792 76.875 71.9792 76.825 72.9792C76.675 75.9042 74.125 78.1292 71.3 78.4792C60.15 79.8542 46.225 77.4292 34.775 78.4792C31.7 78.6292 29.7 74.0542 27.55 73.3792C26.05 72.9042 24.25 73.3042 22.675 73.1792C22.525 74.6792 23.35 77.8292 21.5 78.3792L0.8 78.1542L0 77.6042L0.075 29.3292C0.4 28.5042 1.4 28.4292 2.2 28.3542C6.4 27.9042 15.55 27.9542 19.825 28.3292C20.975 28.4292 21.875 28.5042 22.65 29.4542V69.6792C28.675 68.5292 30.675 71.6292 34.75 74.9542C46.25 74.0792 59.525 76.1542 70.8 74.9542C72.9 74.7292 73.775 73.4792 73.125 71.3042C72.45 69.0792 68.675 69.9292 67.025 69.4792C66.175 68.8792 66.625 66.6042 67.275 66.6042H73.875C74.225 66.6042 76.15 65.3042 76.4 64.7542C77.225 62.9792 76.6 60.2292 74.65 59.6792C73.45 59.3292 71.775 60.0042 70.75 59.2042C69.75 58.4292 70.025 56.0792 70.8 56.0792C72.425 56.0542 76.125 56.3792 77.4 56.0542ZM19.125 31.8792H3.3V74.9792H19.125V31.8792Z" fill="#4CC12F"/>
<path d="M12.875 68.7042C10.875 70.6792 7.87495 67.3042 9.67495 65.7292C11.875 63.8042 14.625 66.9542 12.875 68.7042Z" fill="#4CC12F"/>
</svg>
